# xmcd
#
# Track frame offsets:
#	150
#	14085
#	28582
#	46451
#	63017
#	78329
#	93814
#	110742
#	129295
#	147955
#	166869
#	173355
#
# Disc length: 2585 seconds
#
# Revision: 1
# Processed by: cddbd v1.5.2PL0 Copyright (c) Steve Scherf et al.
# Submitted via: audiograbber 1.83.01
#
DISCID=8e0a170c
DTITLE=Erja Lyytinen - Dreamland Blues
DYEAR=2006
DGENRE=
TTITLE0=Skinny Girl
TTITLE1=Why A Woman Play The Blues
TTITLE2=Best For You
TTITLE3=It Hurts Me Too
TTITLE4=Mississippi Callin´
TTITLE5=I Need Love (To Get Over You)
TTITLE6=Good Lovin´ Man
TTITLE7=Dreamland Blues
TTITLE8=Nasty Weather
TTITLE9=Join Everyone
TTITLE10=Voyager´s Rest
TTITLE11=Lady (Bonus Track)
EXTD=
EXTT0=
EXTT1=
EXTT2=
EXTT3=
EXTT4=
EXTT5=
EXTT6=
EXTT7=
EXTT8=
EXTT9=
EXTT10=
EXTT11=
PLAYORDER=
